<svg width="1920" height="1080" viewBox="0 0 1920 1080" xmlns="http://www.w3.org/2000/svg">
  <defs>
    <linearGradient id="heroGradient" x1="0%" y1="0%" x2="100%" y2="100%">
      <stop offset="0%" style="stop-color:#000000;stop-opacity:1" />
      <stop offset="30%" style="stop-color:#1a1a1a;stop-opacity:1" />
      <stop offset="70%" style="stop-color:#B30000;stop-opacity:0.3" />
      <stop offset="100%" style="stop-color:#000000;stop-opacity:1" />
    </linearGradient>
    <radialGradient id="spotlightGradient" cx="50%" cy="30%" r="40%">
      <stop offset="0%" style="stop-color:#FAFAFA;stop-opacity:0.1" />
      <stop offset="100%" style="stop-color:#000000;stop-opacity:0" />
    </radialGradient>
  </defs>
  
  <!-- Background -->
  <rect width="1920" height="1080" fill="url(#heroGradient)"/>
  
  <!-- Spotlight effect -->
  <rect width="1920" height="1080" fill="url(#spotlightGradient)"/>
  
  <!-- Car silhouettes -->
  <g transform="translate(200, 400)">
    <!-- Luxury sedan silhouette -->
    <rect x="0" y="80" width="300" height="60" rx="30" fill="#333" opacity="0.6"/>
    <rect x="20" y="40" width="260" height="40" rx="20" fill="#333" opacity="0.4"/>
    <circle cx="60" cy="150" r="25" fill="#666" opacity="0.8"/>
    <circle cx="240" cy="150" r="25" fill="#666" opacity="0.8"/>
  </g>
  
  <g transform="translate(600, 350)">
    <!-- SUV silhouette -->
    <rect x="0" y="60" width="350" height="80" rx="25" fill="#333" opacity="0.5"/>
    <rect x="25" y="20" width="300" height="60" rx="15" fill="#333" opacity="0.3"/>
    <circle cx="70" cy="150" r="30" fill="#666" opacity="0.7"/>
    <circle cx="280" cy="150" r="30" fill="#666" opacity="0.7"/>
  </g>
  
  <g transform="translate(1100, 380)">
    <!-- Sports car silhouette -->
    <rect x="0" y="90" width="280" height="50" rx="25" fill="#333" opacity="0.7"/>
    <rect x="15" y="60" width="250" height="30" rx="15" fill="#333" opacity="0.5"/>
    <circle cx="50" cy="150" r="22" fill="#666" opacity="0.9"/>
    <circle cx="230" cy="150" r="22" fill="#666" opacity="0.9"/>
  </g>
  
  <!-- Accent lines -->
  <line x1="0" y1="600" x2="1920" y2="580" stroke="#B30000" stroke-width="2" opacity="0.3"/>
  <line x1="0" y1="650" x2="1920" y2="630" stroke="#B30000" stroke-width="1" opacity="0.2"/>
  
  <!-- Text overlay area (darker for readability) -->
  <rect x="0" y="300" width="1920" height="400" fill="rgba(0,0,0,0.4)"/>
</svg>